# xmcd CD database file
#
# Track frame offsets:
#	183
#	17155
#	32320
#	48148
#	68523
#	82948
#	101513
#	114538
#	133990
#	150795
#	166348
#	186398
#	202240
#	221323
#	235215
#	253008
#	270275
#	289410
#	304878
#	322423
#
# Disc length: 4455 seconds
#
# Revision: 3
# Processed by: cddbd v1.5.2PL0 Copyright (c) Steve Scherf et al.
# Submitted via: CDex 1.51
#
DISCID=16116514
DTITLE=Sonny Terry and Brownie McGhee - Midnight Special
DYEAR=1977
DGENRE=Folk-Blues
TTITLE0=Sonny's Squall
TTITLE1=Red River Blues
TTITLE2=Gone Gal
TTITLE3=Blues Before Sunrise
TTITLE4=Sweet Lovin' Kind
TTITLE5=Midnight Special
TTITLE6=Take This Hammer Whup
TTITLE7=Too Nicey Mama
TTITLE8=Meet Me Down the Bottom
TTITLE9=Tryin' to Win
TTITLE10=Blues All Around My Head
TTITLE11=East Coast Blues
TTITLE12=Muddy Water
TTITLE13=Beggin' and Cryin'
TTITLE14=My Plan
TTITLE15=Trying to Destroy Me
TTITLE16=Everything I Had is Gone
TTITLE17=Jealous Man
TTITLE18=Understand Me
TTITLE19=Blues Of Happiness
EXTD=YEAR: 1977
EXTT0=
EXTT1=
EXTT2=
EXTT3=
EXTT4=
EXTT5=
EXTT6=
EXTT7=
EXTT8=
EXTT9=
EXTT10=
EXTT11=
EXTT12=
EXTT13=
EXTT14=
EXTT15=
EXTT16=
EXTT17=
EXTT18=
EXTT19=
PLAYORDER=
